<?xml version="1.0"?>
<mxfile host="embed.diagrams.net" modified="2020-07-31T07:01:52.981Z" agent="5.0 (X11; Linux x86_64) AppleWebKit/537.36 (KHTML, like Gecko) Chrome/84.0.4147.105 Safari/537.36" etag="5QpJJwF-OqXSr8ekDda9" version="13.5.7" pages="3">
  <diagram name="Single edge" id="T7YNmlpWl77Y7bME-h__">
    <mxGraphModel dx="2" dy="1" grid="1" gridSize="10" guides="1" tooltips="1" connect="1" arrows="1" fold="1" page="1" pageScale="1" pageWidth="1654" pageHeight="1169" math="1" shadow="0">
      <root>
        <mxCell id="3-sfGovqtxGIc_dDBFMb-0"/>
        <mxCell id="3-sfGovqtxGIc_dDBFMb-1" parent="3-sfGovqtxGIc_dDBFMb-0"/>
        <mxCell id="3-sfGovqtxGIc_dDBFMb-60" value="" style="endArrow=none;html=1;strokeWidth=3;fillColor=#76608a;strokeColor=#B3B3B3;" parent="3-sfGovqtxGIc_dDBFMb-1" source="3-sfGovqtxGIc_dDBFMb-17" target="3-sfGovqtxGIc_dDBFMb-12" edge="1">
          <mxGeometry width="50" height="50" relative="1" as="geometry">
            <mxPoint x="540.4191191238206" y="277.1352623790889" as="sourcePoint"/>
            <mxPoint x="272.99266570180964" y="197.1329354708048" as="targetPoint"/>
          </mxGeometry>
        </mxCell>
        <mxCell id="3-sfGovqtxGIc_dDBFMb-2" value="`A`&lt;br&gt;&lt;div&gt;&lt;br&gt;&lt;/div&gt;&lt;div&gt;&lt;br&gt;&lt;/div&gt;" style="whiteSpace=wrap;html=1;rounded=0;shadow=0;strokeWidth=1;fillColor=#6d8764;fontSize=24;align=right;strokeColor=#3A5431;" parent="3-sfGovqtxGIc_dDBFMb-1" vertex="1">
          <mxGeometry x="273.42" y="120" width="20" height="20" as="geometry"/>
        </mxCell>
        <mxCell id="3-sfGovqtxGIc_dDBFMb-3" value="`B`&lt;br&gt;&lt;br&gt;&lt;div&gt;&lt;br&gt;&lt;/div&gt;" style="whiteSpace=wrap;html=1;rounded=0;shadow=0;strokeWidth=1;fillColor=#e51400;fontSize=24;align=right;strokeColor=#B20000;" parent="3-sfGovqtxGIc_dDBFMb-1" vertex="1">
          <mxGeometry x="444" y="170.42" width="20" height="20" as="geometry"/>
        </mxCell>
        <mxCell id="3-sfGovqtxGIc_dDBFMb-9" value="" style="endArrow=none;html=1;strokeWidth=3;fillColor=#76608a;strokeColor=#B3B3B3;" parent="3-sfGovqtxGIc_dDBFMb-1" target="3-sfGovqtxGIc_dDBFMb-17" edge="1">
          <mxGeometry width="50" height="50" relative="1" as="geometry">
            <mxPoint x="820" y="200" as="sourcePoint"/>
            <mxPoint x="480" y="240" as="targetPoint"/>
          </mxGeometry>
        </mxCell>
        <mxCell id="3-sfGovqtxGIc_dDBFMb-10" value="" style="endArrow=none;html=1;strokeWidth=3;fillColor=#76608a;strokeColor=#B3B3B3;" parent="3-sfGovqtxGIc_dDBFMb-1" source="3-sfGovqtxGIc_dDBFMb-11" edge="1">
          <mxGeometry width="50" height="50" relative="1" as="geometry">
            <mxPoint x="480" y="240" as="sourcePoint"/>
            <mxPoint x="160" y="160" as="targetPoint"/>
          </mxGeometry>
        </mxCell>
        <mxCell id="3-sfGovqtxGIc_dDBFMb-11" value="" style="ellipse;whiteSpace=wrap;html=1;aspect=fixed;fillColor=#d5e8d4;strokeColor=#82b366;rotation=5;" parent="3-sfGovqtxGIc_dDBFMb-1" vertex="1">
          <mxGeometry x="253" y="184" width="20.42" height="20.42" as="geometry"/>
        </mxCell>
        <mxCell id="3-sfGovqtxGIc_dDBFMb-13" style="edgeStyle=orthogonalEdgeStyle;rounded=0;orthogonalLoop=1;jettySize=auto;html=1;exitX=0.5;exitY=1;exitDx=0;exitDy=0;strokeColor=#B3B3B3;strokeWidth=3;fontColor=#000000;" parent="3-sfGovqtxGIc_dDBFMb-1" source="3-sfGovqtxGIc_dDBFMb-42" target="3-sfGovqtxGIc_dDBFMb-42" edge="1">
          <mxGeometry relative="1" as="geometry"/>
        </mxCell>
        <mxCell id="3-sfGovqtxGIc_dDBFMb-57" style="edgeStyle=none;orthogonalLoop=1;jettySize=auto;html=1;endArrow=none;strokeColor=#B3B3B3;strokeWidth=3;fillColor=#76608a;" parent="3-sfGovqtxGIc_dDBFMb-1" source="3-sfGovqtxGIc_dDBFMb-17" target="3-sfGovqtxGIc_dDBFMb-56" edge="1">
          <mxGeometry relative="1" as="geometry"/>
        </mxCell>
        <mxCell id="3-sfGovqtxGIc_dDBFMb-58" style="edgeStyle=none;curved=1;orthogonalLoop=1;jettySize=auto;html=1;strokeColor=#994C00;strokeWidth=2;" parent="3-sfGovqtxGIc_dDBFMb-1" source="3-sfGovqtxGIc_dDBFMb-17" target="3-sfGovqtxGIc_dDBFMb-56" edge="1">
          <mxGeometry relative="1" as="geometry">
            <Array as="points">
              <mxPoint x="530" y="330"/>
            </Array>
          </mxGeometry>
        </mxCell>
        <mxCell id="3-sfGovqtxGIc_dDBFMb-17" value="" style="ellipse;whiteSpace=wrap;html=1;aspect=fixed;fillColor=#f5f5f5;strokeColor=#666666;rotation=5;fontColor=#333333;" parent="3-sfGovqtxGIc_dDBFMb-1" vertex="1">
          <mxGeometry x="540" y="270" width="20" height="20" as="geometry"/>
        </mxCell>
        <mxCell id="3-sfGovqtxGIc_dDBFMb-18" style="edgeStyle=none;curved=1;orthogonalLoop=1;jettySize=auto;html=1;strokeColor=#994C00;strokeWidth=2;" parent="3-sfGovqtxGIc_dDBFMb-1" source="3-sfGovqtxGIc_dDBFMb-17" target="3-sfGovqtxGIc_dDBFMb-36" edge="1">
          <mxGeometry relative="1" as="geometry">
            <Array as="points">
              <mxPoint x="380" y="120"/>
            </Array>
          </mxGeometry>
        </mxCell>
        <mxCell id="3-sfGovqtxGIc_dDBFMb-19" style="edgeStyle=none;curved=1;orthogonalLoop=1;jettySize=auto;html=1;strokeColor=#994C00;strokeWidth=2;" parent="3-sfGovqtxGIc_dDBFMb-1" source="3-sfGovqtxGIc_dDBFMb-17" target="3-sfGovqtxGIc_dDBFMb-24" edge="1">
          <mxGeometry relative="1" as="geometry">
            <Array as="points">
              <mxPoint x="710" y="290"/>
            </Array>
            <mxPoint x="489.999812928711" y="240.35883308726704" as="sourcePoint"/>
          </mxGeometry>
        </mxCell>
        <mxCell id="3-sfGovqtxGIc_dDBFMb-23" style="edgeStyle=none;curved=1;orthogonalLoop=1;jettySize=auto;html=1;strokeColor=#994C00;strokeWidth=2;" parent="3-sfGovqtxGIc_dDBFMb-1" source="3-sfGovqtxGIc_dDBFMb-24" target="3-sfGovqtxGIc_dDBFMb-17" edge="1">
          <mxGeometry relative="1" as="geometry">
            <Array as="points">
              <mxPoint x="660" y="180"/>
            </Array>
            <mxPoint x="489.59200007839013" y="237.5927160567029" as="targetPoint"/>
          </mxGeometry>
        </mxCell>
        <mxCell id="3-sfGovqtxGIc_dDBFMb-24" value="" style="ellipse;whiteSpace=wrap;html=1;aspect=fixed;fillColor=#f5f5f5;strokeColor=#666666;rotation=5;fontColor=#333333;" parent="3-sfGovqtxGIc_dDBFMb-1" vertex="1">
          <mxGeometry x="810" y="190.42" width="20" height="20" as="geometry"/>
        </mxCell>
        <mxCell id="3-sfGovqtxGIc_dDBFMb-35" style="edgeStyle=none;curved=1;orthogonalLoop=1;jettySize=auto;html=1;strokeColor=#994C00;strokeWidth=2;" parent="3-sfGovqtxGIc_dDBFMb-1" source="3-sfGovqtxGIc_dDBFMb-36" target="3-sfGovqtxGIc_dDBFMb-17" edge="1">
          <mxGeometry relative="1" as="geometry">
            <Array as="points">
              <mxPoint x="290" y="250"/>
            </Array>
          </mxGeometry>
        </mxCell>
        <mxCell id="3-sfGovqtxGIc_dDBFMb-36" value="" style="ellipse;whiteSpace=wrap;html=1;aspect=fixed;fillColor=#f5f5f5;strokeColor=#666666;rotation=5;fontColor=#333333;" parent="3-sfGovqtxGIc_dDBFMb-1" vertex="1">
          <mxGeometry x="149.99999999999994" y="150" width="20" height="20" as="geometry"/>
        </mxCell>
        <mxCell id="3-sfGovqtxGIc_dDBFMb-37" value="&lt;div&gt;&lt;font style=&quot;font-size: 16px&quot;&gt;`c_1^B`&lt;/font&gt;&lt;/div&gt;" style="text;html=1;strokeColor=none;fillColor=none;align=center;verticalAlign=middle;whiteSpace=wrap;rounded=0;fontColor=#000000;" parent="3-sfGovqtxGIc_dDBFMb-1" vertex="1">
          <mxGeometry x="424" y="214.99999999999994" width="40" height="20" as="geometry"/>
        </mxCell>
        <mxCell id="3-sfGovqtxGIc_dDBFMb-39" value="" style="endArrow=none;html=1;strokeWidth=3;fillColor=#76608a;strokeColor=#B3B3B3;" parent="3-sfGovqtxGIc_dDBFMb-1" source="3-sfGovqtxGIc_dDBFMb-12" target="3-sfGovqtxGIc_dDBFMb-11" edge="1">
          <mxGeometry width="50" height="50" relative="1" as="geometry">
            <mxPoint x="400.76658894558864" y="228.00260183065996" as="sourcePoint"/>
            <mxPoint x="170" y="170.0000000000001" as="targetPoint"/>
          </mxGeometry>
        </mxCell>
        <mxCell id="3-sfGovqtxGIc_dDBFMb-42" value="&lt;font style=&quot;font-size: 16px&quot;&gt;`c_1^A`&lt;/font&gt;" style="text;html=1;strokeColor=none;fillColor=none;align=center;verticalAlign=middle;whiteSpace=wrap;rounded=0;fontColor=#000000;" parent="3-sfGovqtxGIc_dDBFMb-1" vertex="1">
          <mxGeometry x="260.00000000000006" y="164" width="40" height="20" as="geometry"/>
        </mxCell>
        <mxCell id="3-sfGovqtxGIc_dDBFMb-43" value="" style="endArrow=block;html=1;fillColor=#fff2cc;strokeColor=#EA6B66;strokeWidth=5;endFill=1;" parent="3-sfGovqtxGIc_dDBFMb-1" source="3-sfGovqtxGIc_dDBFMb-11" edge="1">
          <mxGeometry width="50" height="50" relative="1" as="geometry">
            <mxPoint x="410.4749027158893" y="160.00284049438736" as="sourcePoint"/>
            <mxPoint x="315" y="209" as="targetPoint"/>
          </mxGeometry>
        </mxCell>
        <mxCell id="3-sfGovqtxGIc_dDBFMb-44" value="" style="endArrow=block;html=1;fillColor=#fff2cc;strokeColor=#EA6B66;strokeWidth=5;endFill=1;" parent="3-sfGovqtxGIc_dDBFMb-1" target="3-sfGovqtxGIc_dDBFMb-12" edge="1">
          <mxGeometry width="50" height="50" relative="1" as="geometry">
            <mxPoint x="383" y="230" as="sourcePoint"/>
            <mxPoint x="240" y="427.4400000000001" as="targetPoint"/>
          </mxGeometry>
        </mxCell>
        <mxCell id="3-sfGovqtxGIc_dDBFMb-48" value="&lt;b&gt;Legend&lt;/b&gt;" style="text;html=1;strokeColor=none;align=center;verticalAlign=middle;whiteSpace=wrap;rounded=0;fillColor=#a8ca40;fontColor=#FFFFFF;" parent="3-sfGovqtxGIc_dDBFMb-1" vertex="1">
          <mxGeometry x="690.21" y="329.99999999999994" width="139.79" height="20" as="geometry"/>
        </mxCell>
        <mxCell id="3-sfGovqtxGIc_dDBFMb-49" value="Street map `M`" style="text;html=1;strokeColor=none;fillColor=none;align=left;verticalAlign=middle;whiteSpace=wrap;rounded=0;" parent="3-sfGovqtxGIc_dDBFMb-1" vertex="1">
          <mxGeometry x="740.6300000000001" y="360" width="89.37" height="20" as="geometry"/>
        </mxCell>
        <mxCell id="3-sfGovqtxGIc_dDBFMb-50" value="" style="curved=1;html=1;strokeColor=#994C00;fontColor=#000000;fontSize=11;rounded=1;strokeWidth=2;" parent="3-sfGovqtxGIc_dDBFMb-1" edge="1">
          <mxGeometry width="50" height="50" relative="1" as="geometry">
            <mxPoint x="690" y="390" as="sourcePoint"/>
            <mxPoint x="730" y="390" as="targetPoint"/>
            <Array as="points"/>
          </mxGeometry>
        </mxCell>
        <mxCell id="3-sfGovqtxGIc_dDBFMb-51" value="&lt;span style=&quot;text-align: right&quot;&gt;Street graph `G`&lt;/span&gt;" style="text;html=1;strokeColor=none;fillColor=none;align=left;verticalAlign=middle;whiteSpace=wrap;rounded=0;" parent="3-sfGovqtxGIc_dDBFMb-1" vertex="1">
          <mxGeometry x="740.6300000000001" y="380" width="89.37" height="20" as="geometry"/>
        </mxCell>
        <mxCell id="3-sfGovqtxGIc_dDBFMb-52" value="" style="endArrow=none;html=1;strokeWidth=3;fillColor=#76608a;strokeColor=#B3B3B3;" parent="3-sfGovqtxGIc_dDBFMb-1" edge="1">
          <mxGeometry width="50" height="50" relative="1" as="geometry">
            <mxPoint x="730" y="370" as="sourcePoint"/>
            <mxPoint x="690" y="370" as="targetPoint"/>
          </mxGeometry>
        </mxCell>
        <mxCell id="3-sfGovqtxGIc_dDBFMb-59" style="edgeStyle=none;curved=1;orthogonalLoop=1;jettySize=auto;html=1;strokeColor=#994C00;strokeWidth=2;" parent="3-sfGovqtxGIc_dDBFMb-1" source="3-sfGovqtxGIc_dDBFMb-56" target="3-sfGovqtxGIc_dDBFMb-17" edge="1">
          <mxGeometry relative="1" as="geometry">
            <Array as="points">
              <mxPoint x="570" y="340"/>
            </Array>
          </mxGeometry>
        </mxCell>
        <mxCell id="3-sfGovqtxGIc_dDBFMb-56" value="" style="ellipse;whiteSpace=wrap;html=1;aspect=fixed;fillColor=#f5f5f5;strokeColor=#666666;rotation=5;fontColor=#333333;" parent="3-sfGovqtxGIc_dDBFMb-1" vertex="1">
          <mxGeometry x="540" y="380" width="20" height="20" as="geometry"/>
        </mxCell>
        <mxCell id="3-sfGovqtxGIc_dDBFMb-12" value="" style="ellipse;whiteSpace=wrap;html=1;aspect=fixed;fillColor=#f8cecc;strokeColor=#b85450;" parent="3-sfGovqtxGIc_dDBFMb-1" vertex="1">
          <mxGeometry x="424" y="235" width="20" height="20" as="geometry"/>
        </mxCell>
      </root>
    </mxGraphModel>
  </diagram>
</mxfile>
